<svg id="svg8" xmlns="http://www.w3.org/2000/svg" width="464.29" height="169.03" viewBox="0 0 464.29 169.03">
  <defs>
    <style>
      .cls-1 {
        fill: #fff200;
      }
    </style>
  </defs>
  <title>pokemonlogo</title>
  <g id="layer1">
    <g id="g1132">
      <path id="path1118" class="cls-1" d="M45.24,132.31c-8.93-20.19-16.57-37.07-17-37.51s-2.35-.13-4.3.68c-3.39,1.42-3.6,1.39-4.92-.66C15.41,89.21,0,62.75,0,62.14c0-3.09,19.18-15.3,32-20.37,30.29-12,57.49-10,72.59,5.13,7.24,7.28,9.6,12.83,9.65,22.68,0,4.41.26,8,.52,8a9.61,9.61,0,0,0,2.42-1.49c3-2.29,13.84-5.28,19.08-5.28,4.48,0,4.76-.16,4.76-2.52s-.2-2.48-3.74-1.89l-3.74.64-.63-6.63c-.34-3.64-.63-8.62-.63-11.07V44.89l5.59-2.58C142.65,40.1,179.3,28,181.21,28c.36,0,.66,1.08.66,2.4v2.4l4.39-3c2.41-1.63,4.79-2.82,5.28-2.64s5.6,4.47,11.36,9.56c15.43,13.63,14.54,13.05,17.91,11.65,1.59-.66,2.88-1.43,2.88-1.71a19.12,19.12,0,0,0-2.49-3.78l-2.48-3.27,15.79-18C249.61,4.35,256.65-1.81,258.69.45c1.62,1.79,16.68,24.82,16.38,25.06s-5.46,3-11.75,6.3-11.42,6.46-11.42,7,1.32.9,2.94.9C259,39.67,268,43,271.94,46c3.61,2.75,5.24,2.5,5.26-.8,0-7.58,3.74-9.43,18.88-9.43,10,0,11.46-.23,15.29-2.42s5.09-2.42,18.48-2.43h14.24l1,6.08c.57,3.34,2,12.2,3.15,19.69s2.18,13.71,2.26,13.82a32,32,0,0,0,5-2.21,54.48,54.48,0,0,1,11-3.66l6.17-1.26L372.57,53l-.18-10.34,4.12-2.11,4.11-2.1,21.23,4.68c17.1,3.77,21.22,5,21.22,6.27,0,2.55,1,2.91,4,1.38,2.54-1.31,4-1.12,19.57,2.58,9.25,2.2,17.19,4.36,17.65,4.79s-6.91,24-16.38,52.43l-17.22,51.66-3.8,1.94-3.8,1.94L409.94,162l-13.13-4.1V152.8c0-4.53-.26-5.19-2.19-5.61S372,143.74,371,143.74c-.24,0-.26-.55-.05-1.22a66.2,66.2,0,0,0,.93-6.64l.55-5.43L366.56,132l-5.92,1.54.6,4.51c.58,4.41.51,4.56-3,6.64l-3.61,2.13-17.57-3.07c-9.66-1.68-18.31-3.27-19.24-3.53-1.17-.33-1.86-1.93-2.31-5.28-.35-2.64-.82-4.81-1.05-4.81a21,21,0,0,0-3.28,1.49c-2.85,1.47-2.88,1.46-4.51-2-1.84-3.87-2.22-4-6.1-2-2.52,1.31-4.34,1.2-19.4-1.19-18.5-2.93-17.32-2.11-15.64-11,.53-2.83.8-5.33.58-5.55s-2.62.74-5.35,2.12a43.88,43.88,0,0,1-8.61,3.27l-3.65.76-.27,13.19L248,142.49l-3.71,1.68-3.71,1.67-27.05-13.21c-14.88-7.26-27.2-13.21-27.39-13.21s-.33,4.15-.33,9.22v9.22L181.68,140c-2.68,1.37-9.19,2.82-19,4.23l-14.88,2.15-.11-3a39.15,39.15,0,0,0-.73-5.68l-.62-2.68-4.82,3.43c-13.48,9.61-31.48,8.27-42.1-3.13-2.27-2.44-4.14-4-4.14-3.47s1.26,5.76,2.79,11.6L100.89,154l-3.53,2.54C94.64,158.51,64.87,169,62,169c-.32,0-7.88-16.53-16.81-36.72Zm37.92,19.23a49.44,49.44,0,0,0,7.45-2.82c.35-.33-1.72-9.55-4.6-20.49s-5.14-19.92-5-20,2.75-2,5.84-4.33c10.79-8.13,18.9-21.17,19.88-32,.68-7.52-2.14-14.11-8.62-20.17C91.87,46,86.45,43.67,75.92,42.34Q54,39.57,26.42,53c-6.94,3.39-9,4.82-8.65,6.07.72,2.74,11.46,20.48,12.4,20.48a19.3,19.3,0,0,0,4.33-1.64c2.1-1,3.76-1.29,4.24-.73a67.71,67.71,0,0,1,3.8,7.72c9,20.19,29.77,66.38,30.58,67.91.52,1,1.46,1.59,2.09,1.36s4.2-1.41,8-2.63ZM72.74,83.68c-4.37-14.31-4.37-14.35-2.33-15.52C71.54,67.51,75,67,78,66.94c4.84,0,6,.35,9,3,3.8,3.33,5,7.51,4,13.3-.5,2.7-2.15,5.09-6.4,9.24C81.43,95.51,78.46,98,78,98S75.14,91.57,72.74,83.68Zm10.91,1.46c3.74-6.13,1.28-12.4-4.87-12.4-1.61,0-2.92.26-2.92.57,0,2,4.35,15,5,15C81.35,88.3,82.59,86.88,83.65,85.14Zm357.08,23.58c7.87-23.8,14.33-44,14.37-44.81,0-1.18-2.33-2-10.22-3.74-5.66-1.21-10.42-2-10.58-1.86s-2.19,8.32-4.49,18.08S425.35,94.14,425,94.14s-2.5-9.08-4.83-20.18-4.33-20.31-4.45-20.46c-.56-.78-26-5.18-27.23-4.71-.83.32-1.43,1.81-1.43,3.55,0,2.48.53,3.18,3.05,4.06l3,1.06-.62,6.66c-.59,6.44-.51,6.81,2.67,11.28,4.62,6.52,5.79,10.88,5.27,19.59a36.67,36.67,0,0,1-9.85,22.78c-3,3.26-3.45,4.39-3.73,9.68l-.31,6,3.89.64c2.14.36,5.72.93,7.95,1.26l4.07.62,1-5.11c.56-2.81,2-10.79,3.23-17.75L409,100.46l.61,6.81c.33,3.74.66,13.59.74,21.88s.39,16,.7,17.21c.43,1.59,2.1,2.62,6.56,4,3.28,1,6.62,1.84,7.41,1.75,1-.11,5.86-13.56,15.74-43.43Zm-264,22.74c2.15-.58,2.18-.83,2.18-16.53V99l30.15,15.08c16.58,8.29,30.6,15.08,31.16,15.08s.91-3,.73-8.41l-.28-8.42-5.93-1.62c-9.44-2.58-18.42-8.93-22.39-15.83-.47-.81-6.09-3.52-12.5-6S188.11,84.17,187.94,84s5.39-6.33,12.37-13.67,12.63-13.63,12.57-14-4.24-4.51-9.29-9.27l-9.18-8.65-4.57,6.35c-2.51,3.5-6.75,9.36-9.42,13l-4.86,6.67-.78-12.61c-.43-6.93-.89-12.71-1-12.84s-5.9,1.43-12.84,3.47l-12.6,3.69L148,49.87l-.31,3.69,3.78-.61,3.79-.6,1,12.91c1,12.48,1.1,13.08,4.44,17.93,6.25,9.09,7.17,21.13,2.43,31.77-1.76,4-2.13,6.28-1.85,11.65l.34,6.69,6.48-.62a77.33,77.33,0,0,0,8.67-1.22Zm175.54.35a11.32,11.32,0,0,1-.27-2.42c0-.95-1.92-2.85-4.32-4.3-14.33-8.69-17.14-30.36-5.84-45.16l2.3-3-2.85-18.37c-1.57-10.1-3.06-18.92-3.32-19.59-.53-1.37-13.69-1.76-14.52-.42-.27.44-1.41,6.24-2.53,12.89-3.16,18.8-2.82,19-7.22-5.17l-.66-3.65H303c-8.78,0-10.17.22-10.62,1.7-.29.94-1.89,9.89-3.55,19.88l-3,18.18,3,2.73,3,2.74-4.25,4.5c-3.88,4.12-4.35,5.18-5.52,12.39-.71,4.34-1.05,8.12-.77,8.4.68.68,14.92,3.4,17.78,3.4,2.07,0,2.31-.69,3.85-10.94,3-20.12,2-19.53,8.81-5.12l6,12.64,3.83-9.69,3.83-9.69,1.22,7.27c.67,4,2,12.07,2.92,18l1.69,10.69,9.24,1.61c9.59,1.66,12.33,1.8,11.91.58Zm-211.77-2.63c21.56-10.53,25.67-40,7-49.88-5.63-3-16.75-3-23.21,0s-13.87,10.24-17,16.7c-3.55,7.24-3.78,17.9-.52,24.07a26.14,26.14,0,0,0,11.45,10.74c4.67,2.12,16.49,1.27,22.37-1.59Zm-11.85-22.34A12,12,0,0,1,129,84.78c4.67-2,5.44-1.65,2.74,1-3,3-3,6.77,0,9.81,4.18,4.18,11.72,3,14.58-2.26l1.43-2.65,0,4.19c.06,5.86-2.23,9.72-7.07,11.92-5.1,2.31-6.94,2.31-12,0Zm247,13.77c13.77-6.09,22-22.34,17.83-35-5.69-17.13-28.68-19.75-43-4.91-11.79,12.19-12,28.36-.6,38.11C355.52,123.63,367,124.44,375.64,120.61Zm-11.88-20.34c-4.22-2.19-7.8-7.41-7.79-11.38,0-4.19,3-8.71,7.08-10.63,5.19-2.47,6.95-2.14,4.05.76-6.76,6.76,2.68,16.46,11,11.28,1.74-1.08,3.16-2.66,3.16-3.5s.44-1.26,1-.93c1.59,1,1.11,5.61-.93,8.94-3.83,6.29-11.38,8.64-17.53,5.46Zm-106,2A68.58,68.58,0,0,0,267,98.78c5.45-2.74,13.24-8.77,12.92-10-.15-.56-3-3.53-6.35-6.58l-6.07-5.56L263.05,80c-4.32,3.3-11.13,5.88-13.41,5.09-.63-.21,2.78-4.51,7.59-9.54s10.47-11,12.59-13.27l3.87-4.13-3.25-3.34c-6.63-6.85-18.49-9.71-29-7-11.88,3-19,8.2-23.22,16.89a30.25,30.25,0,0,0-1.06,22.67c2.21,5.71,8.81,12.15,14.89,14.53s18.43,2.58,25.78.4ZM235.58,84.68c-1.89-.68-5.08-7.59-5.08-11a14.9,14.9,0,0,1,11.55-14.17c3.87-.77,8.81.22,11.54,2.33l2.18,1.68-9.32,10.7C235.52,86.74,237.1,85.22,235.58,84.68Zm7.08-13c5.94-7.07,6.19-7.72,3-7.72s-8,2.42-9.25,4.81c-1.71,3.21-1.15,8.94.87,8.75.31,0,2.75-2.66,5.43-5.84Zm-34.53,7.35c0-2.94-.35-5.35-.77-5.35s-2.43,1.69-4.45,3.76l-3.67,3.76L203,82.77a31.05,31.05,0,0,0,4.44,1.59C207.8,84.39,208.13,82,208.13,79.06Zm46.44-49.5c6-3,10.94-5.91,10.94-6.47,0-1.31-7.78-11.62-8.77-11.62-.42,0-5,5-10.17,11.23-7.54,9-9.19,11.51-8.29,12.59,1.36,1.64,1.81,1.48,16.29-5.73Zm2.17-18.09a.73.73,0,0,0-.25.15c-.1.09-.27.24-.43.4l-.36.34c-.56.57-1.34,1.39-2.26,2.41h0l-.7.78c-.76.85-1.57,1.76-2.46,2.79l-.25.3c-.51.58-1,1.18-1.56,1.81h0l-1.9,2.25h0l-.43.52L244,25.78h0c-1.91,2.33-3.29,4.09-4.24,5.43h0l-.51.75c-.31.48-.56.89-.74,1.24a2.84,2.84,0,0,0-.45,1.61.88.88,0,0,0,.21.48,1.73,1.73,0,0,0,1.93.81,7.59,7.59,0,0,0,1.3-.35c.52-.19,1.14-.44,1.9-.77,1.52-.67,3.56-1.65,6.36-3l4.8-2.38c2.26-1.13,4.36-2.24,6.11-3.22,2.91-1.63,4.83-2.9,4.83-3.25,0-.9-3.68-6.05-6.3-9.19-.47-.57-.91-1.07-1.29-1.47a6,6,0,0,0-.92-.84.52.52,0,0,0-.26-.12Zm72.83,26.22h-1.16l-.48,0-.66,0-.46,0-.55,0-.45,0-.5.06L325,38l-.44.09-.31.07-.12,0-.12,0-.12,0-.1,0-.12.08,0,0a.38.38,0,0,0-.11.11h0a2.48,2.48,0,0,0-.14.41c-.41,1.49-1.41,6.66-2.39,12.48-.33,2-.6,3.58-.86,5.13-.05.31-.12.74-.18,1h0c0,.13,0,.23-.06.36a55.72,55.72,0,0,1-1.25,6,2.43,2.43,0,0,1-.48,1h0A.22.22,0,0,1,318,65h0a.37.37,0,0,1-.16-.05,3.36,3.36,0,0,1-.69-1.49h0c-.12-.42-.26-.92-.4-1.51-.42-1.79-.91-4.36-1.54-7.77h0l-1.44-7.94-.66-3.65H303c-3.84,0-6.27,0-7.82.22-.26,0-.49.06-.7.09a6.38,6.38,0,0,0-.86.21l-.35.13a1.54,1.54,0,0,0-.8.79h0a2,2,0,0,0-.09.26c-.13.43-.56,2.65-1.11,5.73-.06.31-.09.48-.15.82h0c-.05.26-.11.63-.16.91-.62,3.49-1.36,7.8-2.13,12.42l-3,18.18,3,2.73,3,2.74h0l-4.24,4.5a18,18,0,0,0-3.78,5h0a13.67,13.67,0,0,0-.72,2.11h0a53.2,53.2,0,0,0-1,5.24c-.18,1.08-.33,2.13-.46,3.1h0a.77.77,0,0,1,0,.15c-.12.91-.21,1.75-.28,2.47,0,.38-.06.73-.08,1a4.21,4.21,0,0,0,.07,1.64l.1.07h0l.18.08h0l.14,0c.26.09.61.2,1,.32l.18.05h0l1,.25c.74.17,1.59.36,2.51.55s1.9.39,2.9.58l3,.55c1.48.26,2.89.48,4.06.64h0c.78.11,1.46.19,2,.23h0l.67,0a3.15,3.15,0,0,0,.91-.11,1.48,1.48,0,0,0,.46-.25l.13-.12a2.28,2.28,0,0,0,.22-.28h0s.05-.09.07-.14a5.93,5.93,0,0,0,.48-1.19s0-.09,0-.15h0a51.73,51.73,0,0,0,1-5.29h0c0-.15.06-.36.08-.52.14-.88.28-1.81.44-2.89.32-2.15.58-3.94.83-5.63l.14-1h0c.41-2.82.73-4.94,1-6.42h0c.31-1.47.61-2.29,1-2.5h0l.1,0a.4.4,0,0,1,.19,0c1,.22,2.46,3.91,5.55,10.44l6,12.64,3.83-9.69,3.83-9.69,1.23,7.27c.33,2,.83,5,1.36,8.27h0c.53,3.25,1.09,6.74,1.56,9.68h0l1.69,10.69,9.24,1.61,3.28.55c2,.32,3.57.55,4.81.69a16.51,16.51,0,0,0,2.76.13l.41,0a.93.93,0,0,0,.6-.27.43.43,0,0,0,.05-.47,6.39,6.39,0,0,1-.18-1h0c-.05-.44-.08-.95-.09-1.42a.68.68,0,0,0,0-.19h0a2,2,0,0,0-.32-.68c-.11-.16-.24-.34-.39-.52a6.89,6.89,0,0,0-.53-.57,14.12,14.12,0,0,0-1.37-1.19c-.51-.39-1.08-.78-1.68-1.15a25.25,25.25,0,0,1-2.55-1.78q-.6-.48-1.17-1c-.38-.34-.75-.69-1.11-1.06-.18-.18-.35-.36-.52-.55h0c-.35-.37-.68-.76-1-1.15h0c-.17-.2-.32-.4-.48-.6h0c-.15-.2-.31-.4-.45-.61h0c-.45-.61-.87-1.25-1.27-1.9h0a28.18,28.18,0,0,1-2-4.12,31.22,31.22,0,0,1-1.94-7.53c-.14-1-.22-2.1-.26-3.16s0-2.14.05-3.21a34.21,34.21,0,0,1,2-9.58h0c.19-.52.4-1,.61-1.56.44-1,.93-2,1.47-3h0c.27-.5.55-1,.85-1.48.45-.73.93-1.45,1.43-2.15.17-.24.35-.47.52-.7l2.31-3-2.85-18.37c-.39-2.52-.78-5-1.15-7.23h0c-.91-5.64-1.68-10.11-2-11.74-.07-.32-.12-.53-.15-.62a.38.38,0,0,0-.1-.13l-.06,0-.11-.09-.09,0-.16-.08-.12-.05-.16,0a5.6,5.6,0,0,0-.63-.17l-.11,0-.52-.1-.64-.1-.42-.06-.77-.09-.46,0-.9-.07-.42,0-1,0-.42,0-1.38,0Zm-135.16.73-4.57,6.35c-2.51,3.5-6.75,9.36-9.42,13l-4.86,6.67h0l-.78-12.61c-.1-1.62-.21-3.17-.3-4.61,0-.09,0-.21,0-.3s0-.18,0-.28c-.25-3.65-.48-6.45-.61-7.35a.86.86,0,0,0-.06-.3,4.48,4.48,0,0,0-1.08.2c-1.34.32-3.81,1-6.84,1.85l-4.92,1.42-2.86.83-9.74,2.86L148,49.87h0l0,.29-.28,3.4.6-.1,3.18-.51,3.79-.6h0l1,12.91a107.18,107.18,0,0,0,1.12,10.91,17.72,17.72,0,0,0,.43,1.74c.09.27.17.52.27.77a15,15,0,0,0,1.51,2.86c.32.5.69,1,1.11,1.65a29.35,29.35,0,0,1,2.09,3.54c.31.61.59,1.23.86,1.85q.6,1.42,1,2.88a33.44,33.44,0,0,1,1,4c.11.67.21,1.35.28,2,.11,1,.18,2,.19,3.08h0a34.18,34.18,0,0,1-.2,4.16h0c-.08.69-.18,1.38-.3,2.08h0a35.19,35.19,0,0,1-1,4.12h0c-.21.68-.44,1.36-.7,2h0c-.12.34-.25.68-.39,1h0c-.14.34-.28.67-.43,1h0a22.48,22.48,0,0,0-1.43,4h0a21.14,21.14,0,0,0-.5,5.75c0,.58,0,1.21.08,1.88l.35,6.69,6.47-.62a77.33,77.33,0,0,0,8.67-1.22c.8-.22,1.31-.39,1.64-1.34h0a9.57,9.57,0,0,0,.35-2.13c.05-.65.09-1.44.12-2.38,0-.48,0-1,0-1.55h0c0-1.12,0-2.42,0-3.93h0v-5.2h0V99l30.15,15.08h0c4.14,2.08,8.13,4.05,11.78,5.86s7,3.42,9.8,4.79c4.24,2,7.35,3.52,8.76,4.12l.56.23h0a1.22,1.22,0,0,0,.26.08.19.19,0,0,0,.12,0,.31.31,0,0,0,.1-.1c.42-.56.61-2.78.56-6.36h0v0c0-.59,0-1.21,0-1.86l-.28-8.42-5.93-1.62h0l-.89-.25h0l-.88-.27c-.58-.19-1.16-.4-1.74-.62s-1.15-.44-1.72-.68-1.13-.5-1.69-.77-1.11-.54-1.65-.83h0c-.54-.29-1.08-.59-1.6-.9h0q-.79-.47-1.56-1c-.81-.52-1.58-1.06-2.33-1.62l-.61-.46h0c-.47-.36-.93-.73-1.37-1.11h0c-.21-.17-.4-.36-.61-.54-.44-.4-.87-.8-1.29-1.21-.19-.19-.4-.39-.59-.59s-.39-.4-.57-.6c-.37-.41-.73-.82-1.07-1.24q-.76-.93-1.41-1.89c-.29-.43-.55-.86-.8-1.29a.87.87,0,0,1-.08-.1.46.46,0,0,1-.07-.07l-.14-.12a.58.58,0,0,0-.12-.1h0l-.26-.17-.11-.08c-.14-.1-.3-.19-.47-.29h0c-.35-.21-.76-.43-1.22-.67-1.4-.73-3.29-1.61-5.44-2.54-1.43-.62-3-1.26-4.59-1.88h0c-1.6-.62-3.13-1.23-4.54-1.79h0l-3.77-1.51c-1.63-.66-2.82-1.16-3.34-1.4a1.49,1.49,0,0,1-.3-.16h0s0,0,0-.1a11.73,11.73,0,0,1,.84-1.08c.31-.35.68-.79,1.12-1.28h0l1.51-1.69c2.24-2.47,5.38-5.85,8.86-9.52,5.24-5.51,9.73-10.42,11.62-12.68a12.32,12.32,0,0,0,.91-1.16.29.29,0,0,0,0-.14s0-.05-.06-.1l-.15-.2-.56-.62c-1.44-1.54-4.74-4.78-8.52-8.35h0ZM68.48,41.87h-.82l-2.1.05-.42,0L63,42.07l-.16,0c-.7,0-1.4.12-2.11.2l-.29,0c-.73.08-1.45.18-2.18.28l-.42.06L55.62,43c-.77.14-1.53.29-2.3.45l-.35.07-2.25.5-.41.1c-.73.18-1.48.37-2.22.57l-.11,0c-.78.21-1.56.43-2.34.67l-.44.13c-.77.23-1.53.46-2.3.72l-.39.13c-.71.23-1.43.48-2.15.73l-.33.12c-.78.28-1.57.57-2.35.87l-.49.18c-.81.32-1.61.63-2.42,1l-.15.06q-1.17.48-2.34,1l-.45.19c-.8.35-1.61.72-2.42,1.09l-.46.22c-.84.39-1.68.78-2.53,1.2h0c-.87.42-1.66.81-2.38,1.18-1,.49-1.78.93-2.5,1.33s-1.44.82-1.95,1.17l-.22.15-.46.34a5.19,5.19,0,0,0-.67.61,2.6,2.6,0,0,0-.23.28,1.19,1.19,0,0,0-.24,1,11.61,11.61,0,0,0,.7,1.67c.37.75.85,1.66,1.41,2.69,1.12,2.05,2.56,4.52,4,6.91h0c.72,1.19,1.45,2.37,2.13,3.45s1.34,2.09,1.92,2.95h0c.57.85,1.07,1.55,1.46,2h0a3.83,3.83,0,0,0,.66.72.21.21,0,0,0,.11,0l.25,0,.37-.1a30.89,30.89,0,0,0,3.71-1.51h0l.43-.19.54-.23a8.56,8.56,0,0,1,1.17-.4A3.46,3.46,0,0,1,38.35,77l.15.06a.51.51,0,0,1,.23.17h0a5.72,5.72,0,0,1,.55.89h0c.49.91,1.22,2.39,2,4.11.4.86.82,1.78,1.23,2.72,7.85,17.67,24.75,55.24,29.4,65.38h0c.66,1.45,1.08,2.34,1.18,2.53l.21.35h0a3.76,3.76,0,0,0,.25.31,2.54,2.54,0,0,0,.83.63,1.08,1.08,0,0,0,.8.07c.62-.23,4.2-1.41,7.94-2.63.94-.3,1.85-.61,2.7-.9s1.63-.58,2.3-.84h0c.21-.07.39-.14.57-.22l1.1-.44.52-.25a2.11,2.11,0,0,0,.27-.16,13.85,13.85,0,0,0-.54-3.75c-.77-3.75-2.26-9.91-4.06-16.74-.72-2.74-1.4-5.35-2-7.73s-1.16-4.53-1.61-6.34h0c-.91-3.62-1.45-5.88-1.39-5.91h0l.37-.26.16-.11h0L82.8,107l4-3a50.52,50.52,0,0,0,3.91-3.27c.63-.57,1.25-1.17,1.85-1.78.3-.3.6-.61.89-.92h0c.59-.62,1.16-1.25,1.72-1.9h0c.28-.32.55-.64.82-1h0l.65-.8.16-.2c.52-.66,1-1.34,1.52-2s.78-1.1,1.15-1.65l.28-.42h0c.23-.35.45-.7.67-1h0c.43-.71.85-1.41,1.25-2.12h0c.4-.71.78-1.42,1.13-2.14h0c.36-.72.69-1.43,1-2.15h0l.45-1.08h0c.14-.36.28-.72.41-1.07h0c.27-.71.51-1.43.73-2.14h0c.11-.35.22-.71.31-1.06h0c.1-.36.19-.71.27-1.06h0c.09-.35.16-.7.24-1h0c.07-.35.13-.69.19-1h0q.16-1,.27-2h0a25.89,25.89,0,0,0,.09-2.77,24,24,0,0,0-.24-2.7q-.11-.66-.24-1.32h0c-.1-.43-.21-.87-.33-1.3a24,24,0,0,0-.9-2.54h0a25.62,25.62,0,0,0-3.74-6.07h0c-.32-.39-.65-.78-1-1.16s-.71-.78-1.09-1.16-.76-.76-1.17-1.14h0c-.77-.73-1.54-1.4-2.3-2s-1.53-1.19-2.3-1.72-1.56-1-2.37-1.45h0c-.4-.22-.81-.44-1.23-.64s-.83-.39-1.27-.58c-.86-.36-1.75-.7-2.7-1a46.12,46.12,0,0,0-6.28-1.49c-1.17-.2-2.41-.39-3.72-.55-.52-.07-1-.12-1.57-.18l-.51,0c-.37,0-.75-.07-1.12-.09l-.53,0c-.41,0-.82-.05-1.23-.06l-.37,0c-.55,0-1.11,0-1.66,0Zm181,4.93c-.7,0-1.4,0-2.1.07s-1.24.1-1.85.17l-.1,0c-.34,0-.67.08-1,.14-.61.09-1.22.21-1.83.34l-.41.09-.75.18-1.58.43-1.24.37-1.42.44-1,.35h0l-.6.22-.73.28-.57.23h0l-.91.38-.89.4-.86.42c-.29.14-.57.28-.84.43s-.55.29-.82.44c-.53.3-1.05.61-1.55.94s-1,.65-1.47,1h0l-.7.52a29.2,29.2,0,0,0-2.56,2.25l-.61.63c-.39.42-.77.84-1.13,1.28s-.71.89-1.05,1.35h0c-.07.1-.13.2-.2.29q-.65.91-1.23,1.89c-.3.5-.58,1-.86,1.54h0c-.14.27-.28.54-.41.81s-.4.84-.58,1.28h0a29.39,29.39,0,0,0-2.06,8.51h0v.1c-.09,1-.14,1.92-.14,2.88,0,.5,0,1,0,1.49h0c0,.49.06,1,.1,1.47h0c0,.48.11,1,.18,1.45a25.57,25.57,0,0,0,.56,2.82c.11.46.24.92.38,1.36s.3.88.46,1.31h0c.14.35.29.71.47,1.07h0a21,21,0,0,0,1.93,3.27l.35.46c.41.56.85,1.12,1.33,1.67.6.7,1.24,1.38,1.91,2s1.37,1.28,2.1,1.87c.36.3.73.59,1.1.87.74.55,1.49,1.07,2.26,1.54a24.55,24.55,0,0,0,2.3,1.24c.38.18.76.34,1.14.49h0l.59.22h0c.61.21,1.27.4,2,.57a40.47,40.47,0,0,0,6.35,1c1.15.09,2.33.14,3.52.16s2.39,0,3.57,0a49.68,49.68,0,0,0,5.19-.49,32.71,32.71,0,0,0,4.59-1c1.45-.43,3.21-1,4.87-1.68.83-.32,1.64-.65,2.37-1s1.4-.61,1.93-.88l1-.55c.71-.39,1.45-.83,2.2-1.29,1.11-.69,2.24-1.44,3.32-2.21.72-.51,1.41-1,2.06-1.52l.93-.74a29.29,29.29,0,0,0,2.24-2c.19-.19.37-.38.51-.55a4.46,4.46,0,0,0,.37-.48,1.51,1.51,0,0,0,.12-.2c0-.06.06-.13.09-.18a.51.51,0,0,0,0-.29,3.59,3.59,0,0,0-.59-.84c-.17-.2-.37-.43-.61-.68-.7-.77-1.66-1.75-2.77-2.82-.74-.72-1.54-1.48-2.38-2.24l-6.07-5.56L263.05,80h0c-.27.21-.55.41-.84.61h0c-.57.4-1.18.78-1.81,1.15h0c-.52.31-1,.59-1.58.87l-.8.4-.51.24h0l-.54.24c-.47.2-.94.4-1.39.57a22.77,22.77,0,0,1-2.69.85,12.33,12.33,0,0,1-1.43.25,5.3,5.3,0,0,1-.77.06,4.1,4.1,0,0,1-.83-.08l-.22-.07h0a.11.11,0,0,1-.08-.08,1,1,0,0,1,.13-.45,25.45,25.45,0,0,1,2.86-3.83l.64-.74q.72-.84,1.56-1.77c.25-.27.48-.54.75-.82h0c.55-.6,1.13-1.22,1.73-1.85,4.8-5,10.47-11,12.59-13.27h0l3.87-4.12-3.25-3.35c-.27-.29-.56-.56-.86-.84l-.21-.19c-.3-.27-.61-.54-.92-.79s-.64-.5-1-.74l-.26-.17q-.5-.36-1-.69h0c-.35-.22-.71-.43-1.07-.64l-.27-.15c-.36-.2-.73-.4-1.11-.59s-.75-.36-1.14-.53l-.32-.13q-.57-.26-1.17-.48l-1.22-.43-.32-.1c-.41-.13-.82-.26-1.24-.37h0c-.42-.12-.85-.22-1.28-.32l-.3-.07-1.31-.26c-.44-.08-.88-.15-1.33-.21l-.3,0c-.44,0-.89-.11-1.34-.15h0l-1.34-.08-.34,0c-.45,0-.89,0-1.34,0Zm139.55,2h-.32l-.18,0-.15.07a1.54,1.54,0,0,0-.29.23l-.13.14h0a3,3,0,0,0-.45.79h0a6.19,6.19,0,0,0-.41,2.31,3.78,3.78,0,0,0,.76,2.84,2.09,2.09,0,0,0,.22.2,2.23,2.23,0,0,0,.24.19,4.91,4.91,0,0,0,.61.34c.34.16.75.32,1.22.49l3,1.06h0l-.62,6.66a33.54,33.54,0,0,0-.25,5.22,5.8,5.8,0,0,0,.06.6.29.29,0,0,1,0,.09,6.77,6.77,0,0,0,.21.89l0,.11a1.19,1.19,0,0,0,.08.2c0,.11.07.22.12.33h0a12.63,12.63,0,0,0,.92,1.69h0c.4.62.88,1.32,1.48,2.16.29.4.56.8.83,1.19h0a30.61,30.61,0,0,1,2.54,4.48,20.61,20.61,0,0,1,1.19,3.29,23.74,23.74,0,0,1,.76,4.8c.08,1.31.08,2.7,0,4.24h0s0,0,0,.07c0,.49,0,1-.07,1.52s-.08,1-.13,1.57-.12,1.05-.2,1.57h0c0,.09,0,.17,0,.26-.15.95-.33,1.89-.55,2.82a37,37,0,0,1-1.39,4.49c-.19.49-.38,1-.59,1.45h0c-.21.48-.43,1-.66,1.43h0c-.07.16-.16.31-.24.47-.39.78-.8,1.55-1.25,2.3q-.4.69-.84,1.35h0c-.58.89-1.2,1.75-1.86,2.6h0q-1,1.26-2.1,2.46h0a27,27,0,0,0-1.82,2.14h0a8,8,0,0,0-1.07,1.93,4.56,4.56,0,0,0-.18.52h0a11.4,11.4,0,0,0-.28,1.15,32.24,32.24,0,0,0-.38,3.93l-.31,6,3.89.64c2.14.36,5.72.93,7.95,1.27l4.07.61,1-5.11c.28-1.4.78-4.1,1.37-7.32s1.25-7,1.86-10.43h0L409,100.46l.61,6.81h0c.08.93.16,2.25.24,3.83h0c0,.79.08,1.65.12,2.55h0c.11,2.72.21,5.89.28,9.11,0,2.15.08,4.32.1,6.39,0,4.15.13,8.15.26,11.27h0c.06,1.56.14,2.9.21,3.92h0c0,.51.08.94.12,1.28h0c0,.17,0,.32,0,.44h0a2.6,2.6,0,0,0,.06.3h0a3.54,3.54,0,0,0,.22.57h0a3.54,3.54,0,0,0,.36.53h0c.72.86,2.07,1.59,4.43,2.42h0l1.55.52c.82.26,1.64.51,2.43.73s1.54.41,2.21.57h0l.94.21h0l.8.15h0a4.51,4.51,0,0,0,1,.09h0a.19.19,0,0,0,.1-.05,2.17,2.17,0,0,0,.45-.62,86.84,86.84,0,0,0,4-9.88h0c1.29-3.56,2.86-8,4.72-13.51s4-11.9,6.49-19.37c2-6,3.84-11.67,5.56-16.92s3.26-10,4.56-14.09,2.36-7.41,3.09-9.79,1.15-3.8,1.16-4a1,1,0,0,0-.47-.85,4.52,4.52,0,0,0-.66-.41,9.17,9.17,0,0,0-1-.42l-.64-.22-.74-.23c-.52-.15-1.11-.31-1.78-.48s-1.41-.34-2.23-.53l-2.7-.6h0c-1.42-.3-2.78-.58-4-.82s-2.38-.46-3.34-.63l-1.3-.22a7.24,7.24,0,0,0-1.93-.19,3.29,3.29,0,0,0-.14.43h0c-.23.77-.69,2.56-1.29,5C432,67,431,71.51,429.81,76.39c-.29,1.22-.58,2.41-.86,3.56-1.4,5.77-2.66,10.54-3.37,12.79-.09.29-.16.47-.23.68s-.09.27-.12.36h0a2.33,2.33,0,0,1-.13.27h0c0,.06-.06.09-.08.09h0s0,0-.08-.11h0a1.54,1.54,0,0,1-.12-.3h0c-.1-.27-.22-.67-.36-1.18h0c-.29-1-.67-2.51-1.11-4.34h0c-.21-.91-.45-1.92-.7-3h0l-.77-3.43c-.54-2.41-1.11-5.06-1.69-7.83s-1.15-5.43-1.67-7.86-1-4.62-1.39-6.48c-.8-3.71-1.33-6-1.39-6.12s0,0,0,0a.29.29,0,0,0-.08,0l-.11-.05-.13,0-.36-.11-.49-.14-.64-.15-.62-.15-.91-.2-.59-.13-2-.4-2.14-.42-2.05-.37-2.64-.48L401,50.45,398.24,50l-1.91-.3c-1-.16-2.07-.32-3-.44l-.28,0L391.88,49l-.52-.06-.9-.1-.49-.06-.93-.06ZM245.1,59.23a15,15,0,0,1,8.49,2.59l2.18,1.68-9.32,10.7c-10.93,12.54-9.35,11-10.87,10.48-1.89-.68-5.08-7.59-5.08-11a14.9,14.9,0,0,1,11.56-14.17A14.34,14.34,0,0,1,245.1,59.23ZM78,66.94c4.84,0,6,.35,9,3,3.8,3.33,5,7.51,4,13.3-.5,2.7-2.15,5.09-6.4,9.24C81.43,95.51,78.46,98,78,98s-2.84-6.46-5.24-14.35c-4.37-14.31-4.37-14.35-2.33-15.52C71.54,67.51,75,67,78,66.94Zm294,4c-.42,0-.85,0-1.27,0h-.19c-.41,0-.81.06-1.22.11l-.23,0c-.41,0-.83.1-1.24.17l-.17,0c-.44.07-.87.15-1.31.25s-.88.2-1.31.32L365,72l-1.25.37-.22.07c-.4.13-.81.27-1.21.43l-.21.07c-.85.33-1.69.7-2.53,1.11l-.17.08c-.4.2-.8.41-1.19.63l-.23.12q-.58.33-1.17.69l-.15.1c-.41.26-.82.52-1.23.81s-.79.56-1.18.86l-.17.13c-.37.29-.75.59-1.12.9l-.17.15c-.37.32-.74.65-1.1,1l-.12.11c-.38.36-.76.72-1.12,1.1a37.7,37.7,0,0,0-3,3.53h0c-.3.4-.59.8-.86,1.21h0c-.56.81-1.07,1.64-1.54,2.47h0c-.23.42-.45.83-.66,1.25h0c-.21.42-.41.84-.6,1.27h0c-.19.42-.36.84-.53,1.27h0c-.16.42-.32.85-.46,1.28h0c-.14.42-.27.85-.39,1.28h0c-.12.43-.23.86-.33,1.28h0a1.55,1.55,0,0,0,0,.21c-.17.79-.31,1.57-.41,2.35a24.63,24.63,0,0,0-.17,2.56,23.68,23.68,0,0,0,.09,2.53h0a22.17,22.17,0,0,0,1.93,7.26c.17.38.36.76.56,1.14a22.86,22.86,0,0,0,2.09,3.27c.27.35.54.7.83,1s.59.67.91,1,.63.65,1,1,.68.62,1,.93h0l.55.44h0l.59.42h0l.61.39h0l.64.37c.22.12.44.24.67.35l.7.32h0l.72.3h0l.74.27.76.25.79.23h0l.8.19h0c.27.07.54.13.82.18l.83.15c.56.09,1.13.17,1.71.22a29.36,29.36,0,0,0,4.41.12l.9,0c.6,0,1.2-.11,1.8-.19s1.19-.17,1.78-.29,1.18-.24,1.77-.39,1.15-.32,1.72-.51,1.13-.38,1.68-.6l.82-.35c.58-.26,1.15-.54,1.71-.83s1.36-.73,2-1.14,1.23-.8,1.82-1.24a32.3,32.3,0,0,0,3.64-3.05c.33-.32.65-.65,1-1,.63-.67,1.24-1.37,1.81-2.09.29-.35.56-.72.83-1.08a32.58,32.58,0,0,0,4.45-8.31h0a28.52,28.52,0,0,0,1.51-6.34h0c.05-.42.09-.85.12-1.27h0a25.33,25.33,0,0,0,0-3.8h0a21.76,21.76,0,0,0-.65-3.69h0c-.11-.4-.23-.8-.36-1.19s-.2-.58-.3-.86a1.34,1.34,0,0,1-.07-.18c-.09-.21-.17-.43-.26-.64l-.12-.27c-.07-.18-.15-.35-.23-.52l-.16-.32c-.07-.15-.15-.31-.23-.46l-.15-.28c-.09-.17-.18-.34-.28-.51s-.09-.16-.14-.23l-.3-.5-.15-.23c-.12-.18-.23-.35-.36-.53s-.07-.1-.1-.16c-.33-.45-.67-.89-1-1.32l-.11-.13-.42-.48-.19-.2c-.12-.13-.24-.26-.37-.38a2.28,2.28,0,0,0-.22-.22l-.36-.35-.23-.21-.39-.34-.21-.19-.46-.36-.16-.13-.55-.41-.1-.07-.68-.47-.69-.43-.15-.09-.53-.3-.24-.13-.51-.26-.2-.1-.52-.24-.25-.12-.47-.2-.29-.12-.52-.19-.22-.08-.69-.24-.06,0h0l-.81-.24h0l-.81-.21-.13,0c-.23,0-.45-.11-.68-.15l-.22,0-.57-.11-.33,0-.48-.07-.34,0-.53-.06-.29,0-.6,0-.23,0-.64,0h-1.07Zm-4.27,5.63c1.1,0,.94.78-.69,2.41-6.76,6.76,2.68,16.46,11,11.28,1.74-1.08,3.16-2.66,3.16-3.5s.44-1.26,1-.93c1.59,1,1.11,5.61-.93,8.94-3.83,6.29-11.38,8.64-17.53,5.46-4.22-2.19-7.8-7.41-7.79-11.38,0-4.19,3-8.71,7.07-10.63a14.86,14.86,0,0,1,4.75-1.65Zm-231.59.44c-.53,0-1.06,0-1.58,0h-.14c-1,0-2,.13-2.92.25-.58.07-1.15.16-1.72.26s-1,.19-1.5.31l-.73.18-.71.2-.69.21-.67.24c-.44.16-.86.33-1.26.52a24.94,24.94,0,0,0-2.92,1.6c-.5.31-1,.64-1.5,1-.16.12-.34.23-.5.36-5,3.59-9.74,8.91-12.12,13.76-.22.45-.43.92-.63,1.4-.1.24-.19.48-.28.72a31.13,31.13,0,0,0-1.83,8.68h0a32.31,32.31,0,0,0-.07,3.26h0a29.31,29.31,0,0,0,.25,3.15c.07.52.15,1,.24,1.52,0,.24.1.49.16.73.11.49.23,1,.36,1.42.07.23.14.46.22.68h0a16.69,16.69,0,0,0,.76,1.92h0l.3.59h0a20.1,20.1,0,0,0,1.53,2.44h0c.38.54.8,1.06,1.23,1.58l.68.76h0c.46.5.94,1,1.44,1.46s1,.92,1.55,1.35a27.2,27.2,0,0,0,2.47,1.76,19.28,19.28,0,0,0,1.69,1c.29.15.57.29.86.42l.46.19a10.43,10.43,0,0,0,1,.33c5.34,1.42,15.55.49,20.88-2.11,1-.5,2-1,2.91-1.6.63-.39,1.23-.78,1.82-1.2.88-.62,1.72-1.28,2.52-2a33.85,33.85,0,0,0,4.34-4.47c.42-.53.83-1.07,1.22-1.62.2-.27.39-.55.58-.83.3-.45.58-.91.86-1.37l.2-.33h0a32.26,32.26,0,0,0,1.78-3.52h0c.13-.3.26-.6.38-.9h0c.24-.6.46-1.21.67-1.82h0a33.12,33.12,0,0,0,1-3.7,28.54,28.54,0,0,0,.5-8.3c-.06-.6-.13-1.2-.22-1.8-.05-.29-.1-.59-.16-.88a25.33,25.33,0,0,0-.65-2.6c-.18-.57-.38-1.12-.59-1.67h0q-.33-.83-.72-1.62t-.84-1.56c-.3-.51-.63-1-1-1.49s-.71-1-1.1-1.41-.8-.9-1.23-1.33-.88-.84-1.36-1.24c-.23-.2-.48-.39-.72-.58l-.76-.56-.8-.53c-.27-.18-.54-.35-.83-.51s-.56-.32-.86-.48h0L147,79h0l-.57-.25h0c-.2-.09-.4-.16-.61-.24h0c-.2-.08-.41-.15-.63-.22h0l-.65-.2c-.22-.06-.45-.13-.68-.18-.46-.12-.93-.23-1.41-.32s-1-.18-1.49-.25a36,36,0,0,0-4.71-.32Zm-3.28,6.47c.76,0,.34.79-1.18,2.31-3,3-3,6.77,0,9.81,4.18,4.18,11.72,3,14.57-2.26l1.44-2.65,0,4.18c.06,5.87-2.23,9.73-7.07,11.93-5.1,2.31-6.94,2.31-12,0A12,12,0,0,1,129,84.78a13.55,13.55,0,0,1,3.92-1.26Z"/>
      <path id="path1127" d="M45.23,132.31c-8.92-20.19-16.56-37.07-17-37.51s-2.35-.13-4.3.68c-3.39,1.42-3.6,1.39-4.92-.66C15.41,89.21,0,62.75,0,62.14c0-3.09,19.18-15.3,32-20.37,30.29-12,57.49-10,72.59,5.14,7.24,7.27,9.6,12.82,9.65,22.67,0,4.41.26,8,.52,8a9.61,9.61,0,0,0,2.42-1.49c3-2.29,13.84-5.28,19.08-5.28,4.48,0,4.76-.16,4.76-2.52s-.2-2.48-3.74-1.89l-3.74.64-.63-6.63c-.34-3.64-.63-8.62-.63-11.06V44.89l5.59-2.58C142.65,40.1,179.3,28,181.21,28c.36,0,.66,1.08.66,2.4v2.4l4.39-3c2.41-1.63,4.79-2.82,5.28-2.64s5.6,4.47,11.36,9.56c15.43,13.63,14.54,13.05,17.91,11.65,1.59-.66,2.88-1.43,2.88-1.71a19.12,19.12,0,0,0-2.49-3.78l-2.48-3.27,15.79-18C249.6,4.35,256.65-1.81,258.69.45c1.62,1.79,16.68,24.82,16.38,25.06s-5.46,3-11.75,6.3-11.42,6.46-11.42,7,1.32.9,2.94.9C259,39.67,268,43,271.94,46c3.61,2.75,5.24,2.5,5.26-.8,0-7.58,3.74-9.43,18.88-9.43,10,0,11.46-.23,15.29-2.42s5.09-2.42,18.48-2.43h14.24l1,6.08c.57,3.34,2,12.21,3.15,19.69s2.18,13.71,2.26,13.82a32,32,0,0,0,5-2.21,54.48,54.48,0,0,1,11-3.66l6.17-1.26L372.57,53l-.18-10.34,4.12-2.11,4.11-2.1,21.23,4.68c17.1,3.77,21.22,5,21.22,6.27,0,2.55,1,2.91,4,1.38,2.54-1.31,4-1.12,19.57,2.58,9.25,2.2,17.19,4.36,17.65,4.79s-6.91,24-16.38,52.43l-17.22,51.66-3.8,1.94-3.8,1.94L409.94,162l-13.13-4.1V152.8c0-4.53-.26-5.19-2.19-5.61S372,143.74,371,143.74c-.24,0-.26-.55-.05-1.22a65.73,65.73,0,0,0,.93-6.64l.55-5.43L366.56,132l-5.92,1.54.6,4.51c.58,4.41.51,4.56-3,6.64l-3.61,2.13-17.57-3.06c-9.66-1.69-18.31-3.28-19.24-3.54-1.17-.33-1.86-1.93-2.31-5.28-.35-2.64-.82-4.81-1.05-4.81a21,21,0,0,0-3.28,1.49c-2.85,1.47-2.88,1.46-4.51-2-1.84-3.87-2.22-4-6.1-2-2.52,1.31-4.34,1.2-19.4-1.19-18.5-2.93-17.32-2.11-15.64-11,.53-2.83.8-5.33.58-5.55s-2.62.74-5.35,2.12a43.88,43.88,0,0,1-8.61,3.27l-3.65.76-.27,13.19L248,142.5l-3.71,1.67-3.71,1.67-27.05-13.21c-14.88-7.26-27.2-13.21-27.39-13.21s-.33,4.15-.33,9.22v9.22L181.68,140c-2.68,1.37-9.19,2.82-19,4.23l-14.88,2.15-.11-3a39.15,39.15,0,0,0-.73-5.68l-.62-2.68-4.82,3.43c-13.48,9.61-31.48,8.27-42.1-3.13-2.27-2.44-4.14-4-4.14-3.47s1.26,5.76,2.79,11.6L100.89,154l-3.53,2.54C94.64,158.51,64.87,169,62,169c-.32,0-7.88-16.53-16.81-36.72Zm37.93,19.23a49.44,49.44,0,0,0,7.45-2.82c.35-.33-1.72-9.55-4.6-20.49s-5.14-19.92-5-20,2.75-2,5.84-4.33c10.79-8.13,18.9-21.17,19.88-32,.68-7.52-2.14-14.11-8.62-20.17C91.87,46,86.45,43.67,75.92,42.34Q54,39.57,26.42,53c-6.94,3.38-9,4.81-8.65,6.06.72,2.74,11.46,20.48,12.4,20.48a19.3,19.3,0,0,0,4.33-1.64c2.1-1,3.76-1.29,4.23-.73a65.33,65.33,0,0,1,3.81,7.72c9,20.19,29.77,66.38,30.58,67.91.52,1,1.46,1.59,2.09,1.36s4.2-1.41,8-2.63ZM72.74,83.68c-4.37-14.31-4.37-14.35-2.33-15.52C71.54,67.51,75,67,78,66.94c4.84,0,6,.35,9,3,3.8,3.33,5,7.51,4,13.3-.5,2.7-2.15,5.09-6.4,9.24C81.43,95.51,78.46,98,78,98S75.14,91.57,72.74,83.68Zm10.91,1.46c3.74-6.13,1.28-12.4-4.87-12.4-1.61,0-2.92.26-2.92.57,0,2,4.35,15,5,15C81.35,88.3,82.59,86.88,83.65,85.14Zm357.08,23.58c7.87-23.8,14.33-44,14.37-44.81,0-1.18-2.33-2-10.22-3.74-5.66-1.2-10.42-2-10.58-1.86s-2.19,8.32-4.49,18.08S425.35,94.14,425,94.14s-2.5-9.08-4.83-20.18-4.33-20.31-4.45-20.46c-.56-.78-26-5.18-27.23-4.71-.83.32-1.43,1.81-1.43,3.55,0,2.48.53,3.18,3.05,4.06l3,1.06-.62,6.66c-.59,6.44-.51,6.81,2.67,11.29,4.62,6.51,5.79,10.87,5.27,19.58a36.67,36.67,0,0,1-9.85,22.78c-3,3.26-3.45,4.39-3.73,9.68l-.31,6,3.89.64c2.14.36,5.72.93,7.95,1.26l4.07.62,1-5.11c.56-2.81,2-10.79,3.23-17.75L409,100.46l.61,6.81c.33,3.74.66,13.59.74,21.88s.39,16,.7,17.21c.43,1.59,2.1,2.62,6.56,4,3.28,1,6.62,1.84,7.41,1.75,1-.11,5.86-13.56,15.74-43.43Zm-264,22.74c2.15-.58,2.18-.83,2.18-16.53V99l30.15,15.08c16.58,8.3,30.6,15.08,31.16,15.08s.91-3,.73-8.41l-.28-8.42-5.93-1.62c-9.44-2.58-18.42-8.93-22.39-15.83-.47-.81-6.09-3.52-12.5-6S188.11,84.17,187.94,84s5.39-6.33,12.37-13.67,12.63-13.63,12.57-14-4.24-4.51-9.29-9.27l-9.18-8.65-4.57,6.35c-2.51,3.5-6.75,9.36-9.42,13l-4.86,6.67-.78-12.61c-.43-6.93-.89-12.71-1-12.84s-5.9,1.43-12.84,3.47l-12.6,3.69L148,49.87l-.31,3.69,3.78-.61,3.79-.6,1,12.91c1,12.48,1.1,13.08,4.44,17.93,6.25,9.09,7.17,21.13,2.43,31.77-1.76,4-2.13,6.28-1.85,11.65l.34,6.69,6.48-.62a77.33,77.33,0,0,0,8.67-1.22Zm175.54.35a11.32,11.32,0,0,1-.27-2.42c0-.95-1.92-2.85-4.32-4.3-14.33-8.69-17.14-30.36-5.84-45.16l2.3-3-2.85-18.37c-1.57-10.1-3.06-18.92-3.32-19.59-.53-1.37-13.69-1.76-14.52-.42-.27.44-1.41,6.24-2.53,12.89-3.16,18.8-2.82,19-7.22-5.17l-.66-3.65H303c-8.78,0-10.17.22-10.62,1.7-.29.94-1.89,9.89-3.55,19.88l-3,18.18,3,2.73,3,2.74-4.25,4.5c-3.88,4.12-4.35,5.18-5.52,12.39-.71,4.34-1.05,8.12-.77,8.4.68.68,14.92,3.4,17.78,3.4,2.07,0,2.31-.69,3.85-10.94,3-20.12,2-19.53,8.81-5.12l6,12.64,3.83-9.69,3.83-9.69,1.22,7.27c.67,4,2,12.07,2.92,18l1.69,10.69,9.24,1.61c9.59,1.66,12.33,1.8,11.91.58Zm-211.77-2.63c21.56-10.53,25.67-40,7-49.88-5.63-3-16.75-3-23.21,0s-13.87,10.24-17,16.7c-3.55,7.24-3.78,17.9-.52,24.07a26.14,26.14,0,0,0,11.45,10.74c4.67,2.12,16.49,1.27,22.37-1.59Zm-11.85-22.34A12,12,0,0,1,129,84.78c4.67-2,5.44-1.65,2.74,1-3,3-3,6.77,0,9.81,4.18,4.18,11.72,3,14.58-2.26l1.43-2.65,0,4.19c.06,5.86-2.23,9.72-7.07,11.92-5.1,2.31-6.94,2.31-12,0Zm247,13.77c13.77-6.09,22-22.34,17.83-35-5.69-17.13-28.68-19.75-43-4.91-11.79,12.19-12,28.36-.6,38.11C355.52,123.63,367,124.44,375.64,120.61Zm-11.88-20.34c-4.22-2.19-7.8-7.41-7.79-11.38,0-4.19,3-8.7,7.08-10.63,5.19-2.47,6.95-2.14,4.05.76-6.76,6.76,2.68,16.46,11,11.28,1.74-1.08,3.16-2.66,3.16-3.5s.44-1.26,1-.93c1.59,1,1.11,5.61-.93,8.94-3.83,6.29-11.38,8.64-17.53,5.46Zm-106,2A68.58,68.58,0,0,0,267,98.78c5.45-2.74,13.24-8.77,12.92-10-.15-.56-3-3.53-6.35-6.58l-6.07-5.56L263.05,80c-4.32,3.3-11.13,5.88-13.41,5.09-.63-.21,2.78-4.51,7.59-9.54s10.47-11,12.59-13.27l3.87-4.13-3.25-3.34c-6.63-6.85-18.49-9.71-29-7-11.88,3-19,8.2-23.22,16.89a30.27,30.27,0,0,0-1.06,22.68c2.21,5.7,8.81,12.14,14.89,14.52s18.43,2.58,25.78.4ZM235.58,84.68c-1.89-.68-5.08-7.59-5.08-11a14.9,14.9,0,0,1,11.55-14.17c3.87-.77,8.81.22,11.54,2.33l2.18,1.68-9.32,10.7C235.52,86.74,237.1,85.22,235.58,84.68Zm7.08-13c5.94-7.07,6.19-7.72,3-7.72s-8,2.42-9.25,4.81c-1.71,3.21-1.15,8.94.87,8.75C237.54,77.52,240,74.89,242.66,71.71Zm-34.53,7.35c0-2.94-.35-5.35-.77-5.35s-2.43,1.7-4.45,3.76l-3.67,3.76L203,82.77a31.05,31.05,0,0,0,4.44,1.59C207.8,84.39,208.13,82,208.13,79.06Zm46.44-49.5c6-3,10.94-5.91,10.94-6.47,0-1.31-7.78-11.62-8.77-11.62-.42,0-5,5-10.17,11.23-7.54,9-9.19,11.51-8.29,12.59C239.64,36.93,240.09,36.78,254.57,29.56Z"/>
    </g>
  </g>
</svg>
